A New York writing professor, Frannie Avery (Ryan), has an erotic affair with a police detective (Ruffalo) investigating a murder in her neighborhood of a beautiful young woman.


General
Complete name                    : H:\Movies\In.The.Cut.[2003].DvdRip.XviD-Knã\In.The.Cut.[2003].DvdRip.avi
Format                           : AVI
Format/Info                      : Audio Video Interleave
File size                        : 896 MiB
Duration                         : 1h 53mn
Overall bit rate                 : 1 100 Kbps
Writing application              : VirtualDubMod 1.5.4.1 (build 2178/release)
Writing library                  : VirtualDubMod build 2178/release

Video
ID                               : 0
Format                           : MPEG-4 Visual
Format profile                   : Advanced Simple@L5
Format settings, BVOP            : Yes
Format settings, QPel            : No
Format settings, GMC             : No warppoints
Format settings, Matrix          : Default (H.263)
Muxing mode                      : Packed bitstream
Codec ID                         : XVID
Codec ID/Hint                    : XviD
Duration                         : 1h 53mn
Bit rate                         : 644 Kbps
Width                            : 608 pixels
Height                           : 336 pixels
Display aspect ratio             : 16:9
Frame rate                       : 25.000 fps
Color space                      : YUV
Chroma subsampling               : 4:2:0
Bit depth                        : 8 bits
Scan type                        : Progressive
Bits/(Pixel*Frame)               : 0.126
Stream size                      : 525 MiB (59%)
Writing library                  : XviD 58

Audio
ID                               : 1
Format                           : AC-3
Format/Info                      : Audio Coding 3
Mode extension                   : CM (complete main)
Codec ID                         : 2000
Duration                         : 1h 53mn
Bit rate mode                    : Constant
Bit rate                         : 448 Kbps
Channel(s)                       : 6 channels
Channel positions                : Front: L C R, Side: L R, LFE
Sampling rate                    : 48.0 KHz
Bit depth                        : 16 bits
Stream size                      : 365 MiB (41%)
Alignment                        : Split accross interleaves
Interleave, duration             : 80 ms (2.00 video frames)
Interleave, preload duration     : 500 ms
Language                         : English